<?xml version="1.0" encoding="UTF-8" standalone="no" ?>
<!DOCTYPE svg PUBLIC "-//W3C//DTD SVG 1.1//EN" "http://www.w3.org/Graphics/SVG/1.1/DTD/svg11.dtd">
<svg xmlns="http://www.w3.org/2000/svg" xmlns:xlink="http://www.w3.org/1999/xlink" version="1.1" width="1080" height="1080" viewBox="0 0 1080 1080" xml:space="preserve">
<desc>Created with Fabric.js 5.2.4</desc>
<defs>
</defs>
<g transform="matrix(1 0 0 1 540 540)" id="45a50ef3-6052-4df2-9c44-1ad7a73899e3"  >
<rect style="stroke: none; stroke-width: 1; stroke-dasharray: none; stroke-linecap: butt; stroke-dashoffset: 0; stroke-linejoin: miter; stroke-miterlimit: 4; fill: rgb(255,255,255); fill-rule: nonzero; opacity: 1; visibility: hidden;" vector-effect="non-scaling-stroke"  x="-540" y="-540" rx="0" ry="0" width="1080" height="1080" />
</g>
<g transform="matrix(1 0 0 1 540 540)" id="7b574ee8-f6db-456b-9aab-7fe50f95db28"  >
</g>
<g transform="matrix(29.19 0 0 29.19 540 540)"  >
<g style=""   >
		<g transform="matrix(1 0 0 1 -3.26 3.23)"  >
<path style="stroke: rgb(248,249,251); stroke-width: 2; stroke-dasharray: none; stroke-linecap: round; stroke-dashoffset: 0; stroke-linejoin: round; stroke-miterlimit: 4; fill: none; fill-rule: nonzero; opacity: 1;" vector-effect="non-scaling-stroke"  transform=" translate(-15.24, -20.23)" d="M 27.0892 27.7639 C 27.0892 28.3349 26.8395 28.8824 26.3951 29.2862 C 25.9506 29.6899 25.3478 29.9167 24.7193 29.9167 L 5.76015 29.9167 C 5.13162 29.9167 4.52883 29.6899 4.08438 29.2862 C 3.63994 28.8824 3.39026 28.3349 3.39026 27.7639 L 3.39026 12.6945 C 3.39026 12.1235 3.63994 11.5759 4.08438 11.1722 C 4.52883 10.7685 5.13162 10.5417 5.76015 10.5417 L 11.6849 10.5417 L 14.0548 13.7709 L 24.7193 13.7709 C 25.3478 13.7709 25.9506 13.9977 26.3951 14.4014 C 26.8395 14.8051 27.0892 15.3527 27.0892 15.9236 L 27.0892 27.7639 Z" stroke-linecap="round" />
</g>
		<g transform="matrix(1 0 0 1 0.92 -1.94)"  >
<path style="stroke: rgb(248,249,251); stroke-width: 2; stroke-dasharray: none; stroke-linecap: round; stroke-dashoffset: 0; stroke-linejoin: round; stroke-miterlimit: 4; fill: none; fill-rule: nonzero; opacity: 1;" vector-effect="non-scaling-stroke"  transform=" translate(-19.42, -15.06)" d="M 6.17853 6.02081 C 6.17853 6.02081 6.17853 5.37502 6.87556 4.72915 C 7.57258 4.08327 8.03727 4.08331 8.26961 4.08331 L 15.2399 4.08331 L 18.028 7.31248 L 29.8775 7.31248 C 30.8068 7.31248 32.6656 7.82915 32.6656 9.89581 C 32.6656 11.9625 32.6656 20.2291 32.6656 24.1041 C 32.6656 24.75 32.2296 25.1539 31.9685 25.3958 C 31.7075 25.6377 31.2715 26.0416 31.2715 26.0416" stroke-linecap="round" />
</g>
</g>
</g>
</svg>