<?xml version="1.0" encoding="UTF-8" standalone="no" ?>
<!DOCTYPE svg PUBLIC "-//W3C//DTD SVG 1.1//EN" "http://www.w3.org/Graphics/SVG/1.1/DTD/svg11.dtd">
<svg xmlns="http://www.w3.org/2000/svg" xmlns:xlink="http://www.w3.org/1999/xlink" version="1.1" width="1080" height="1080" viewBox="0 0 1080 1080" xml:space="preserve">
<desc>Created with Fabric.js 5.2.4</desc>
<defs>
</defs>
<g transform="matrix(1 0 0 1 540 540)" id="eacdc6a5-9ea3-4298-9a49-436fbd3e8fb9"  >
<rect style="stroke: none; stroke-width: 1; stroke-dasharray: none; stroke-linecap: butt; stroke-dashoffset: 0; stroke-linejoin: miter; stroke-miterlimit: 4; fill: rgb(255,255,255); fill-rule: nonzero; opacity: 1; visibility: hidden;" vector-effect="non-scaling-stroke"  x="-540" y="-540" rx="0" ry="0" width="1080" height="1080" />
</g>
<g transform="matrix(1 0 0 1 540 540)" id="2e68083a-8814-4dd5-9084-8adefacaaab3"  >
</g>
<g transform="matrix(31.76 0 0 31.76 540 540)"  >
<g style=""   >
		<g transform="matrix(1 0 0 1 0 0)"  >
<path style="stroke: rgb(255,255,255); stroke-width: 2; stroke-dasharray: none; stroke-linecap: round; stroke-dashoffset: 0; stroke-linejoin: round; stroke-miterlimit: 4; fill: none; fill-rule: nonzero; opacity: 1;" vector-effect="non-scaling-stroke"  transform=" translate(-17, -17)" d="M 4.25 12.75 L 17 2.83331 L 29.75 12.75 L 29.75 28.3333 C 29.75 29.0848 29.4515 29.8054 28.9201 30.3368 C 28.3888 30.8681 27.6681 31.1666 26.9167 31.1666 L 7.08333 31.1666 C 6.33189 31.1666 5.61122 30.8681 5.07986 30.3368 C 4.54851 29.8054 4.25 29.0848 4.25 28.3333 L 4.25 12.75 Z" stroke-linecap="round" />
</g>
		<g transform="matrix(1 0 0 1 0 7.08)"  >
<path style="stroke: rgb(255,255,255); stroke-width: 2; stroke-dasharray: none; stroke-linecap: round; stroke-dashoffset: 0; stroke-linejoin: round; stroke-miterlimit: 4; fill: none; fill-rule: nonzero; opacity: 1;" vector-effect="non-scaling-stroke"  transform=" translate(-17, -24.08)" d="M 12.75 31.1667 L 12.75 17 L 21.25 17 L 21.25 31.1667" stroke-linecap="round" />
</g>
</g>
</g>
</svg>